<?xml version="1.0" encoding="UTF-8"?>
<svg xmlns="http://www.w3.org/2000/svg" width="551.613mm" height="370.95mm" xmlns:xlink="http://www.w3.org/1999/xlink" viewBox="0 0 1563.627 1051.513">
  <defs>
    <clipPath id="c">
      <rect x="1.687" y="31.04" width="1559.055" height="1020.472" style="fill: none; stroke-width: 0px;"/>
    </clipPath>
  </defs>
  <g id="a" data-name="Layer 4">
    <rect x="1.687" y="31.04" width="1559.055" height="1020.472" style="fill: #471127; stroke-width: 0px;"/>
  </g>
  <g id="b" data-name="Layer 2 copy">
    <g style="clip-path: url(#c);">
      <polyline points="1.687 3.527 75.982 58.553 150.277 3.527 224.573 58.553 298.869 3.527 373.165 58.553 447.463 3.528 521.76 58.553 596.057 3.528 670.348 58.553 744.641 3.528 818.935 58.553 893.234 3.528 967.533 58.553 1041.83 3.528 1116.131 58.553 1190.43 3.528 1264.727 58.553 1339.027 3.528 1413.329 58.553 1487.635 3.528 1561.94 58.553" style="fill: none; stroke: #49fcd4; stroke-miterlimit: 10; stroke-width: 5.669px;"/>
      <polyline points="1.687 32.717 75.982 86.076 150.277 32.718 224.573 86.076 298.869 32.718 373.165 86.076 447.463 32.718 521.76 86.076 596.057 32.718 670.348 86.076 744.641 32.718 818.935 86.076 893.234 32.718 967.533 86.076 1041.83 32.718 1116.131 86.076 1190.43 32.718 1264.727 86.076 1339.027 32.718 1413.329 86.076 1487.635 32.718 1561.94 86.076" style="fill: none; stroke: #49fcd4; stroke-miterlimit: 10; stroke-width: 5.669px;"/>
      <polyline points="1.687 61.908 75.982 113.598 150.277 61.908 224.573 113.598 298.869 61.908 373.165 113.598 447.463 61.908 521.76 113.598 596.057 61.908 670.348 113.598 744.641 61.908 818.935 113.598 893.234 61.908 967.533 113.599 1041.83 61.908 1116.131 113.599 1190.43 61.908 1264.727 113.599 1339.027 61.908 1413.329 113.599 1487.635 61.908 1561.94 113.599" style="fill: none; stroke: #49fcd4; stroke-miterlimit: 10; stroke-width: 5.669px;"/>
      <polyline points="1.687 91.098 75.982 141.121 150.277 91.098 224.573 141.121 298.869 91.098 373.165 141.121 447.463 91.098 521.76 141.121 596.057 91.098 670.348 141.121 744.641 91.098 818.935 141.121 893.234 91.098 967.533 141.121 1041.83 91.098 1116.131 141.121 1190.43 91.098 1264.727 141.121 1339.027 91.098 1413.329 141.121 1487.635 91.098 1561.94 141.121" style="fill: none; stroke: #49fcd4; stroke-miterlimit: 10; stroke-width: 5.669px;"/>
      <polyline points="1.687 120.288 75.982 168.644 150.277 120.288 224.573 168.644 298.869 120.288 373.165 168.644 447.463 120.288 521.76 168.644 596.057 120.288 670.348 168.644 744.641 120.288 818.935 168.644 893.234 120.288 967.533 168.644 1041.83 120.288 1116.131 168.644 1190.43 120.288 1264.727 168.644 1339.027 120.288 1413.329 168.644 1487.635 120.288 1561.94 168.644" style="fill: none; stroke: #49fcd4; stroke-miterlimit: 10; stroke-width: 5.669px;"/>
      <polyline points="1.687 149.478 75.982 196.166 150.277 149.478 224.573 196.166 298.869 149.478 373.165 196.166 447.463 149.478 521.76 196.166 596.057 149.478 670.348 196.166 744.641 149.478 818.935 196.167 893.234 149.478 967.533 196.167 1041.83 149.478 1116.131 196.167 1190.43 149.478 1264.727 196.167 1339.027 149.478 1413.329 196.167 1487.635 149.478 1561.94 196.167" style="fill: none; stroke: #49fcd4; stroke-miterlimit: 10; stroke-width: 5.669px;"/>
      <polyline points="1.687 178.668 75.982 223.689 150.277 178.668 224.573 223.689 298.869 178.668 373.165 223.689 447.463 178.668 521.76 223.689 596.057 178.668 670.348 223.689 744.641 178.668 818.935 223.689 893.234 178.668 967.533 223.689 1041.83 178.668 1116.131 223.689 1190.43 178.668 1264.727 223.689 1339.027 178.669 1413.329 223.689 1487.635 178.669 1561.94 223.689" style="fill: none; stroke: #49fcd4; stroke-miterlimit: 10; stroke-width: 5.669px;"/>
      <polyline points="1.687 207.858 75.982 251.212 150.277 207.858 224.573 251.212 298.869 207.858 373.165 251.212 447.463 207.858 521.76 251.212 596.057 207.858 670.348 251.212 744.641 207.858 818.935 251.212 893.234 207.859 967.533 251.212 1041.83 207.859 1116.131 251.212 1190.43 207.859 1264.727 251.212 1339.027 207.859 1413.329 251.212 1487.635 207.859 1561.94 251.212" style="fill: none; stroke: #49fcd4; stroke-miterlimit: 10; stroke-width: 5.669px;"/>
      <polyline points="1.687 237.048 75.982 278.734 150.277 237.048 224.573 278.734 298.869 237.048 373.165 278.734 447.463 237.048 521.76 278.734 596.057 237.049 670.348 278.735 744.641 237.049 818.935 278.735 893.234 237.049 967.533 278.735 1041.83 237.049 1116.131 278.735 1190.43 237.049 1264.727 278.735 1339.027 237.049 1413.329 278.735 1487.635 237.049 1561.94 278.735" style="fill: none; stroke: #49fcd4; stroke-miterlimit: 10; stroke-width: 5.669px;"/>
      <polyline points="1.687 266.238 75.982 306.257 150.277 266.239 224.573 306.257 298.869 266.239 373.165 306.257 447.463 266.239 521.76 306.257 596.057 266.239 670.348 306.257 744.641 266.239 818.935 306.257 893.234 266.239 967.533 306.257 1041.83 266.239 1116.131 306.257 1190.43 266.239 1264.727 306.257 1339.027 266.239 1413.329 306.257 1487.635 266.239 1561.94 306.258" style="fill: none; stroke: #49fcd4; stroke-miterlimit: 10; stroke-width: 5.669px;"/>
      <polyline points="1.687 295.429 75.982 333.78 150.277 295.429 224.573 333.78 298.869 295.429 373.165 333.78 447.463 295.429 521.76 333.78 596.057 295.429 670.348 333.78 744.641 295.429 818.935 333.78 893.234 295.429 967.533 333.78 1041.83 295.429 1116.131 333.78 1190.43 295.429 1264.727 333.78 1339.027 295.429 1413.329 333.78 1487.635 295.429 1561.94 333.78" style="fill: none; stroke: #49fcd4; stroke-miterlimit: 10; stroke-width: 5.669px;"/>
      <polyline points="1.687 324.619 75.982 361.302 150.277 324.619 224.573 361.302 298.869 324.619 373.165 361.302 447.463 324.619 521.76 361.303 596.057 324.619 670.348 361.303 744.641 324.619 818.935 361.303 893.234 324.619 967.533 361.303 1041.83 324.619 1116.131 361.303 1190.43 324.619 1264.727 361.303 1339.027 324.619 1413.329 361.303 1487.635 324.619 1561.94 361.303" style="fill: none; stroke: #49fcd4; stroke-miterlimit: 10; stroke-width: 5.669px;"/>
      <polyline points="1.687 353.809 75.982 388.825 150.277 353.809 224.573 388.825 298.869 353.809 373.165 388.825 447.463 353.809 521.76 388.825 596.057 353.809 670.348 388.825 744.641 353.809 818.935 388.825 893.234 353.809 967.533 388.825 1041.83 353.809 1116.131 388.825 1190.43 353.809 1264.727 388.825 1339.027 353.809 1413.329 388.825 1487.635 353.809 1561.94 388.826" style="fill: none; stroke: #49fcd4; stroke-miterlimit: 10; stroke-width: 5.669px;"/>
      <polyline points="1.687 382.999 75.981 416.348 150.277 382.999 224.573 416.348 298.869 382.999 373.165 416.348 447.463 382.999 521.76 416.348 596.057 382.999 670.348 416.348 744.641 382.999 818.935 416.348 893.234 382.999 967.533 416.348 1041.83 382.999 1116.131 416.348 1190.43 382.999 1264.727 416.348 1339.027 382.999 1413.329 416.348 1487.635 382.999 1561.94 416.348" style="fill: none; stroke: #49fcd4; stroke-miterlimit: 10; stroke-width: 5.669px;"/>
      <polyline points="1.687 412.189 75.981 443.87 150.277 412.189 224.573 443.87 298.869 412.189 373.165 443.871 447.463 412.189 521.76 443.871 596.057 412.189 670.348 443.871 744.641 412.189 818.935 443.871 893.234 412.189 967.533 443.871 1041.83 412.189 1116.131 443.871 1190.43 412.189 1264.727 443.871 1339.027 412.19 1413.329 443.871 1487.635 412.19 1561.94 443.871" style="fill: none; stroke: #49fcd4; stroke-miterlimit: 10; stroke-width: 5.669px;"/>
      <polyline points="1.687 441.379 75.981 471.393 150.277 441.379 224.573 471.393 298.869 441.379 373.165 471.393 447.463 441.379 521.76 471.393 596.057 441.379 670.348 471.393 744.641 441.379 818.935 471.393 893.234 441.379 967.533 471.393 1041.83 441.38 1116.131 471.393 1190.43 441.38 1264.727 471.393 1339.027 441.38 1413.329 471.394 1487.635 441.38 1561.94 471.394" style="fill: none; stroke: #49fcd4; stroke-miterlimit: 10; stroke-width: 5.669px;"/>
      <polyline points="1.687 470.569 75.981 498.916 150.277 470.569 224.573 498.916 298.869 470.569 373.165 498.916 447.463 470.569 521.76 498.916 596.057 470.569 670.348 498.916 744.641 470.57 818.935 498.916 893.233 470.57 967.533 498.916 1041.83 470.57 1116.131 498.916 1190.43 470.57 1264.727 498.916 1339.027 470.57 1413.329 498.916 1487.635 470.57 1561.94 498.916" style="fill: none; stroke: #49fcd4; stroke-miterlimit: 10; stroke-width: 5.669px;"/>
      <polyline points="1.687 499.759 75.981 526.438 150.277 499.759 224.573 526.439 298.869 499.76 373.165 526.439 447.463 499.76 521.76 526.439 596.057 499.76 670.348 526.439 744.641 499.76 818.935 526.439 893.233 499.76 967.533 526.439 1041.83 499.76 1116.131 526.439 1190.43 499.76 1264.727 526.439 1339.027 499.76 1413.329 526.439 1487.635 499.76 1561.94 526.439" style="fill: none; stroke: #49fcd4; stroke-miterlimit: 10; stroke-width: 5.669px;"/>
      <polyline points="1.687 528.95 75.981 553.961 150.277 528.95 224.573 553.961 298.869 528.95 373.165 553.961 447.463 528.95 521.76 553.961 596.057 528.95 670.348 553.961 744.641 528.95 818.935 553.961 893.233 528.95 967.533 553.961 1041.83 528.95 1116.131 553.961 1190.43 528.95 1264.727 553.962 1339.027 528.95 1413.329 553.962 1487.635 528.95 1561.94 553.962" style="fill: none; stroke: #49fcd4; stroke-miterlimit: 10; stroke-width: 5.669px;"/>
      <polyline points="1.687 558.14 75.981 581.484 150.277 558.14 224.573 581.484 298.869 558.14 373.165 581.484 447.463 558.14 521.76 581.484 596.056 558.14 670.348 581.484 744.641 558.14 818.935 581.484 893.233 558.14 967.533 581.484 1041.83 558.14 1116.131 581.484 1190.43 558.14 1264.727 581.484 1339.027 558.14 1413.329 581.484 1487.635 558.14 1561.94 581.484" style="fill: none; stroke: #49fcd4; stroke-miterlimit: 10; stroke-width: 5.669px;"/>
      <polyline points="1.687 587.33 75.981 609.006 150.277 587.33 224.573 609.007 298.869 587.33 373.165 609.007 447.463 587.33 521.76 609.007 596.056 587.33 670.348 609.007 744.641 587.33 818.935 609.007 893.233 587.33 967.533 609.007 1041.83 587.33 1116.131 609.007 1190.43 587.33 1264.727 609.007 1339.027 587.33 1413.329 609.007 1487.635 587.33 1561.94 609.007" style="fill: none; stroke: #49fcd4; stroke-miterlimit: 10; stroke-width: 5.669px;"/>
      <polyline points="1.687 616.52 75.981 636.529 150.277 616.52 224.573 636.529 298.869 616.52 373.165 636.529 447.463 616.52 521.76 636.529 596.056 616.52 670.348 636.529 744.641 616.52 818.935 636.529 893.233 616.52 967.533 636.529 1041.83 616.52 1116.131 636.53 1190.43 616.52 1264.727 636.53 1339.027 616.52 1413.329 636.53 1487.635 616.52 1561.94 636.53" style="fill: none; stroke: #49fcd4; stroke-miterlimit: 10; stroke-width: 5.669px;"/>
      <polyline points="1.687 645.71 75.981 664.052 150.277 645.71 224.573 664.052 298.869 645.71 373.165 664.052 447.463 645.71 521.76 664.052 596.056 645.71 670.348 664.052 744.641 645.71 818.935 664.052 893.233 645.71 967.533 664.052 1041.83 645.71 1116.131 664.052 1190.43 645.71 1264.727 664.052 1339.027 645.71 1413.329 664.052 1487.634 645.711 1561.94 664.052" style="fill: none; stroke: #49fcd4; stroke-miterlimit: 10; stroke-width: 5.669px;"/>
      <polyline points="1.687 674.9 75.981 691.575 150.277 674.9 224.573 691.575 298.869 674.9 373.165 691.575 447.463 674.9 521.76 691.575 596.056 674.9 670.348 691.575 744.641 674.9 818.935 691.575 893.233 674.9 967.533 691.575 1041.83 674.9 1116.131 691.575 1190.43 674.901 1264.727 691.575 1339.027 674.901 1413.329 691.575 1487.634 674.901 1561.94 691.575" style="fill: none; stroke: #49fcd4; stroke-miterlimit: 10; stroke-width: 5.669px;"/>
      <polyline points="1.687 704.09 75.981 719.097 150.277 704.09 224.573 719.097 298.869 704.09 373.165 719.097 447.463 704.09 521.76 719.097 596.056 704.09 670.348 719.097 744.641 704.09 818.935 719.097 893.233 704.091 967.533 719.098 1041.83 704.091 1116.131 719.098 1190.43 704.091 1264.727 719.098 1339.027 704.091 1413.329 719.098 1487.634 704.091 1561.94 719.098" style="fill: none; stroke: #49fcd4; stroke-miterlimit: 10; stroke-width: 5.669px;"/>
      <polyline points="1.687 733.28 75.981 746.62 150.277 733.28 224.573 746.62 298.869 733.28 373.165 746.62 447.463 733.281 521.76 746.62 596.056 733.281 670.348 746.62 744.641 733.281 818.935 746.62 893.233 733.281 967.533 746.62 1041.83 733.281 1116.131 746.62 1190.43 733.281 1264.727 746.62 1339.027 733.281 1413.329 746.62 1487.634 733.281 1561.94 746.62" style="fill: none; stroke: #49fcd4; stroke-miterlimit: 10; stroke-width: 5.669px;"/>
      <polyline points="1.687 762.47 75.981 774.143 150.277 762.471 224.573 774.143 298.869 762.471 373.165 774.143 447.463 762.471 521.76 774.143 596.056 762.471 670.348 774.143 744.641 762.471 818.935 774.143 893.233 762.471 967.533 774.143 1041.83 762.471 1116.13 774.143 1190.43 762.471 1264.727 774.143 1339.027 762.471 1413.329 774.143 1487.634 762.471 1561.94 774.143" style="fill: none; stroke: #49fcd4; stroke-miterlimit: 10; stroke-width: 5.669px;"/>
      <polyline points="1.687 791.661 75.981 801.665 150.277 791.661 224.573 801.665 298.869 791.661 373.165 801.665 447.463 791.661 521.76 801.665 596.056 791.661 670.348 801.665 744.641 791.661 818.935 801.666 893.233 791.661 967.533 801.666 1041.83 791.661 1116.13 801.666 1190.43 791.661 1264.727 801.666 1339.027 791.661 1413.329 801.666 1487.634 791.661 1561.94 801.666" style="fill: none; stroke: #49fcd4; stroke-miterlimit: 10; stroke-width: 5.669px;"/>
      <polyline points="1.687 820.851 75.981 829.188 150.277 820.851 224.573 829.188 298.869 820.851 373.165 829.188 447.463 820.851 521.759 829.188 596.056 820.851 670.348 829.188 744.641 820.851 818.935 829.188 893.233 820.851 967.533 829.188 1041.83 820.851 1116.13 829.188 1190.43 820.851 1264.726 829.188 1339.027 820.851 1413.329 829.188 1487.634 820.851 1561.94 829.188" style="fill: none; stroke: #49fcd4; stroke-miterlimit: 10; stroke-width: 5.669px;"/>
      <polyline points="1.687 850.041 75.981 856.711 150.277 850.041 224.573 856.711 298.869 850.041 373.165 856.711 447.463 850.041 521.759 856.711 596.056 850.041 670.348 856.711 744.641 850.041 818.935 856.711 893.233 850.041 967.533 856.711 1041.83 850.041 1116.13 856.711 1190.43 850.041 1264.726 856.711 1339.027 850.041 1413.329 856.711 1487.634 850.041 1561.94 856.711" style="fill: none; stroke: #49fcd4; stroke-miterlimit: 10; stroke-width: 5.669px;"/>
      <polyline points="1.687 879.231 75.981 884.233 150.277 879.231 224.573 884.233 298.869 879.231 373.165 884.233 447.463 879.231 521.759 884.233 596.056 879.231 670.348 884.233 744.641 879.231 818.935 884.234 893.233 879.231 967.533 884.234 1041.83 879.231 1116.13 884.234 1190.43 879.231 1264.726 884.234 1339.027 879.231 1413.329 884.234 1487.634 879.231 1561.94 884.234" style="fill: none; stroke: #49fcd4; stroke-miterlimit: 10; stroke-width: 5.669px;"/>
      <polyline points="1.687 908.421 75.981 911.756 150.277 908.421 224.573 911.756 298.869 908.421 373.165 911.756 447.463 908.421 521.759 911.756 596.056 908.421 670.348 911.756 744.641 908.421 818.935 911.756 893.233 908.421 967.533 911.756 1041.83 908.421 1116.13 911.756 1190.43 908.421 1264.726 911.756 1339.027 908.422 1413.329 911.756 1487.634 908.422 1561.94 911.756" style="fill: none; stroke: #49fcd4; stroke-miterlimit: 10; stroke-width: 5.669px;"/>
      <polyline points="1.687 937.611 75.981 939.279 150.277 937.611 224.573 939.279 298.869 937.611 373.165 939.279 447.463 937.611 521.759 939.279 596.056 937.611 670.348 939.279 744.641 937.611 818.935 939.279 893.233 937.611 967.533 939.279 1041.83 937.612 1116.13 939.279 1190.43 937.612 1264.726 939.279 1339.027 937.612 1413.329 939.279 1487.634 937.612 1561.94 939.279" style="fill: none; stroke: #49fcd4; stroke-miterlimit: 10; stroke-width: 5.669px;"/>
      <line x1="1.687" y1="966.801" x2="1561.94" y2="966.802" style="fill: none; stroke: #49fcd4; stroke-miterlimit: 10; stroke-width: 5.669px;"/>
      <line x1="1.687" y1="995.038" x2="1561.94" y2="995.039" style="fill: none; stroke: #49fcd4; stroke-miterlimit: 10; stroke-width: 5.669px;"/>
      <line x1="1.687" y1="1023.275" x2="1561.94" y2="1023.276" style="fill: none; stroke: #49fcd4; stroke-miterlimit: 10; stroke-width: 5.669px;"/>
    </g>
  </g>
</svg>