<?xml version="1.0" encoding="UTF-8"?>
<svg xmlns="http://www.w3.org/2000/svg" width="623.986mm" height="557.306mm" xmlns:xlink="http://www.w3.org/1999/xlink" viewBox="0 0 1768.78 1579.766">
  <defs>
    <clipPath id="c">
      <rect x="208.309" y="543.528" width="1559.055" height="1020.472" style="fill: none; stroke-width: 0px;"/>
    </clipPath>
  </defs>
  <g id="a" data-name="Layer 4">
    <rect x="208.309" y="543.528" width="1559.055" height="1020.472" style="fill: #471127; stroke-width: 0px;"/>
  </g>
  <g id="b" data-name="Layer 2 copy">
    <g style="clip-path: url(#c);">
      <g>
        <polyline points="282.39 1.649 336.449 77.24 424.74 48.24 478.8 123.831 567.092 94.831 621.152 170.423 709.446 141.423 763.506 217.015 851.799 188.015 905.855 263.605 994.144 234.604 1048.202 310.195 1136.496 281.196 1190.559 356.789 1278.853 327.789 1332.917 403.382 1421.212 374.383 1475.272 449.975 1563.568 420.976 1617.634 496.569 1705.936 467.572 1760.004 543.167" style="fill: none; stroke: #49fcd4; stroke-miterlimit: 10; stroke-width: 5.669px;"/>
        <polyline points="275.282 39.959 330.59 113.558 418.264 85.467 473.574 159.066 561.249 130.976 616.558 204.575 704.235 176.485 759.545 250.084 847.221 221.994 902.526 295.592 990.198 267.5 1045.506 341.099 1133.183 313.009 1188.496 386.609 1276.172 358.519 1331.486 432.12 1419.164 404.03 1474.474 477.63 1562.153 449.54 1617.468 523.141 1705.152 495.054 1760.471 568.656" style="fill: none; stroke: #49fcd4; stroke-miterlimit: 10; stroke-width: 5.669px;"/>
        <polyline points="268.124 78.61 324.664 150.197 411.744 123.017 468.286 194.606 555.367 167.426 611.909 239.014 698.992 211.835 755.534 283.423 842.616 256.244 899.153 327.831 986.231 300.65 1042.771 372.238 1129.854 345.059 1186.399 416.648 1273.481 389.469 1330.027 461.058 1417.112 433.88 1473.654 505.468 1560.739 478.29 1617.286 549.88 1704.377 522.703 1760.928 594.294" style="fill: none; stroke: #49fcd4; stroke-miterlimit: 10; stroke-width: 5.669px;"/>
        <polyline points="260.916 117.605 318.671 187.163 405.181 160.896 462.937 230.454 549.447 204.187 607.203 273.744 693.716 247.478 751.472 317.036 837.984 290.769 895.735 360.326 982.243 334.058 1039.997 403.615 1126.51 377.349 1184.27 446.908 1270.781 420.641 1328.542 490.2 1415.055 463.934 1472.812 533.492 1559.327 507.226 1617.089 576.786 1703.609 550.522 1761.374 620.082" style="fill: none; stroke: #49fcd4; stroke-miterlimit: 10; stroke-width: 5.669px;"/>
        <polyline points="253.658 156.951 312.609 224.459 398.573 199.106 457.524 266.614 543.489 241.261 602.441 308.77 688.407 283.417 747.36 350.925 833.325 325.572 892.272 393.08 978.234 367.725 1037.184 435.234 1123.151 409.881 1182.106 477.39 1268.072 452.037 1327.028 519.547 1412.996 494.195 1471.948 561.704 1557.916 536.351 1616.874 603.862 1702.848 578.511 1761.809 646.022" style="fill: none; stroke: #49fcd4; stroke-miterlimit: 10; stroke-width: 5.669px;"/>
        <polyline points="246.35 196.651 306.477 262.091 391.92 237.652 452.048 303.092 537.492 278.653 597.62 344.093 683.066 319.655 743.195 385.096 828.639 360.657 888.763 426.096 974.203 401.656 1034.33 467.096 1119.776 442.658 1179.908 508.099 1265.353 483.661 1325.485 549.102 1410.932 524.664 1471.061 590.105 1556.509 565.667 1616.643 631.109 1702.096 606.673 1762.234 672.116" style="fill: none; stroke: #49fcd4; stroke-miterlimit: 10; stroke-width: 5.669px;"/>
        <polyline points="238.99 236.709 300.274 300.062 385.221 276.538 446.507 339.891 531.455 316.367 592.741 379.72 677.691 356.197 738.977 419.55 823.925 396.026 885.207 459.378 970.151 435.853 1031.435 499.206 1116.386 475.683 1177.675 539.037 1262.624 515.513 1323.913 578.867 1408.865 555.344 1470.151 618.698 1555.103 595.175 1616.394 658.529 1701.352 635.008 1762.647 698.364" style="fill: none; stroke: #49fcd4; stroke-miterlimit: 10; stroke-width: 5.669px;"/>
        <polyline points="231.578 277.132 294 338.378 378.477 315.769 440.9 377.016 525.379 354.408 587.801 415.654 672.282 393.046 734.705 454.293 819.184 431.684 881.602 492.93 966.078 470.32 1028.499 531.566 1112.979 508.958 1175.406 570.206 1259.885 547.598 1322.312 608.845 1406.794 586.238 1469.217 647.484 1553.7 624.877 1616.129 686.125 1700.616 663.519 1763.049 724.768" style="fill: none; stroke: #49fcd4; stroke-miterlimit: 10; stroke-width: 5.669px;"/>
        <polyline points="224.114 317.923 287.652 377.043 371.687 355.35 435.226 414.471 519.262 392.778 582.801 451.899 666.839 430.206 730.379 489.327 814.415 467.634 877.95 526.754 961.982 505.06 1025.52 564.18 1109.557 542.488 1173.101 601.609 1257.137 579.917 1320.681 639.038 1404.719 617.346 1468.26 676.467 1552.299 654.775 1615.845 713.897 1699.89 692.207 1763.439 751.33" style="fill: none; stroke: #49fcd4; stroke-miterlimit: 10; stroke-width: 5.669px;"/>
        <polyline points="216.597 359.088 281.23 416.063 364.849 395.285 429.485 452.261 513.104 431.483 577.739 488.459 661.361 467.682 725.997 524.657 809.617 503.88 874.248 560.854 957.864 540.076 1022.498 597.051 1106.12 576.274 1170.759 633.25 1254.379 612.473 1319.019 669.449 1402.642 648.672 1467.278 705.648 1550.901 684.871 1615.543 741.848 1699.172 721.073 1763.817 778.051" style="fill: none; stroke: #49fcd4; stroke-miterlimit: 10; stroke-width: 5.669px;"/>
        <polyline points="209.025 400.632 274.733 455.442 357.964 435.579 423.674 490.39 506.906 470.527 572.615 525.338 655.848 505.476 721.559 560.287 804.791 540.424 870.496 595.234 953.724 575.371 1019.432 630.181 1102.666 610.319 1168.379 665.131 1251.612 645.268 1317.325 700.08 1400.56 680.218 1466.271 735.029 1549.506 715.167 1615.222 769.98 1698.463 750.119 1764.182 804.932" style="fill: none; stroke: #49fcd4; stroke-miterlimit: 10; stroke-width: 5.669px;"/>
        <polyline points="201.4 442.559 268.16 495.186 351.031 476.237 417.793 528.864 500.665 509.915 567.427 562.542 650.301 543.593 717.063 596.221 799.936 577.272 866.693 629.898 949.562 610.948 1016.322 663.575 1099.196 644.627 1165.961 697.255 1248.834 678.306 1315.6 730.934 1398.476 711.986 1465.238 764.613 1548.114 745.665 1614.882 798.294 1697.764 779.347 1764.535 831.976" style="fill: none; stroke: #49fcd4; stroke-miterlimit: 10; stroke-width: 5.669px;"/>
        <polyline points="193.719 484.875 261.509 535.3 344.05 517.263 411.841 567.687 494.383 549.65 562.174 600.075 644.717 582.038 712.509 632.463 795.051 614.426 862.838 664.85 945.376 646.812 1013.166 697.236 1095.71 679.2 1163.505 729.625 1246.047 711.589 1313.843 762.014 1396.388 743.978 1464.18 794.403 1546.725 776.367 1614.523 826.793 1697.074 808.758 1764.875 859.184" style="fill: none; stroke: #49fcd4; stroke-miterlimit: 10; stroke-width: 5.669px;"/>
        <polyline points="185.983 527.586 254.779 575.788 337.019 558.662 405.817 606.864 488.057 589.738 556.856 637.941 639.098 620.815 707.897 669.017 790.137 651.891 858.931 700.093 941.168 682.966 1009.965 731.168 1092.207 714.042 1161.009 762.245 1243.25 745.119 1312.053 793.323 1394.296 776.197 1463.095 824.4 1545.339 807.274 1614.144 855.478 1696.394 838.353 1765.202 886.558" style="fill: none; stroke: #49fcd4; stroke-miterlimit: 10; stroke-width: 5.669px;"/>
        <polyline points="178.19 570.696 247.97 616.658 329.938 600.439 399.72 646.401 481.689 630.183 551.47 676.144 633.442 659.926 703.224 705.888 785.194 689.67 854.971 735.631 936.937 719.412 1006.717 765.373 1088.688 749.155 1158.473 795.118 1240.443 778.9 1310.23 824.862 1392.202 808.645 1461.988 854.607 1543.96 838.39 1613.747 884.352 1695.725 868.136 1765.516 914.099" style="fill: none; stroke: #49fcd4; stroke-miterlimit: 10; stroke-width: 5.669px;"/>
        <polyline points="170.34 614.212 241.079 657.913 322.807 642.6 393.548 686.302 475.277 670.989 546.018 714.69 627.749 699.379 698.49 743.08 780.22 727.768 850.963 771.469 932.688 756.156 1003.427 799.857 1085.157 784.545 1155.901 828.247 1237.631 812.935 1308.375 856.637 1390.107 841.325 1460.852 885.027 1542.583 869.715 1613.329 913.417 1695.066 898.106 1765.816 941.809" style="fill: none; stroke: #49fcd4; stroke-miterlimit: 10; stroke-width: 5.669px;"/>
        <polyline points="162.431 658.138 234.105 699.56 315.625 685.15 387.301 726.572 468.821 712.162 540.496 753.584 622.018 739.175 693.694 780.597 775.216 766.188 846.893 807.61 928.41 793.2 1000.083 834.621 1081.605 820.212 1153.283 861.634 1234.804 847.225 1306.483 888.647 1388.006 874.238 1459.686 915.661 1541.209 901.252 1612.889 942.674 1694.417 928.266 1766.101 969.69" style="fill: none; stroke: #49fcd4; stroke-miterlimit: 10; stroke-width: 5.669px;"/>
        <polyline points="154.465 702.481 227.048 741.605 308.391 728.094 380.976 767.218 462.32 753.707 534.905 792.831 616.25 779.321 688.836 818.444 770.18 804.934 842.768 844.058 924.107 830.547 996.69 869.67 1078.035 856.16 1150.623 895.284 1231.967 881.774 1304.556 920.898 1385.903 907.388 1458.492 946.512 1539.838 933.002 1612.428 972.127 1693.779 958.618 1766.373 997.743" style="fill: none; stroke: #49fcd4; stroke-miterlimit: 10; stroke-width: 5.669px;"/>
        <polyline points="146.439 747.246 219.906 784.053 301.105 771.437 374.574 808.244 455.773 795.628 529.242 832.435 610.444 819.82 683.914 856.626 765.114 844.011 838.585 880.818 919.781 868.202 993.247 905.008 1074.448 892.393 1147.921 929.2 1229.121 916.584 1302.594 953.392 1383.796 940.777 1457.269 977.584 1538.471 964.969 1611.945 1001.776 1693.152 989.162 1766.63 1025.97" style="fill: none; stroke: #49fcd4; stroke-miterlimit: 10; stroke-width: 5.669px;"/>
        <polyline points="138.352 792.44 212.678 826.91 293.765 815.185 368.093 849.656 449.181 837.931 523.508 872.402 604.599 860.677 678.926 895.148 760.016 883.423 834.345 917.894 915.429 906.168 989.754 940.639 1070.844 928.914 1145.175 963.385 1226.263 951.66 1300.595 986.132 1381.686 974.407 1456.017 1008.878 1537.108 997.154 1611.44 1031.625 1692.537 1019.901 1766.872 1054.373" style="fill: none; stroke: #49fcd4; stroke-miterlimit: 10; stroke-width: 5.669px;"/>
        <polyline points="130.205 838.067 205.362 870.183 286.372 859.343 361.531 891.46 442.542 880.62 517.701 912.736 598.714 901.897 673.873 934.013 754.885 923.174 830.046 955.29 911.053 944.45 986.21 976.566 1067.223 965.726 1142.384 997.843 1223.396 987.004 1298.559 1019.121 1379.573 1008.281 1454.735 1040.398 1535.749 1029.559 1610.913 1061.676 1691.932 1050.837 1767.1 1082.955" style="fill: none; stroke: #49fcd4; stroke-miterlimit: 10; stroke-width: 5.669px;"/>
        <polyline points="121.996 884.135 197.957 913.878 278.925 903.918 354.888 933.662 435.856 923.701 511.819 953.445 592.79 943.485 668.753 973.228 749.723 963.268 825.688 993.012 906.652 983.051 982.613 1012.794 1063.583 1002.834 1139.549 1032.578 1220.518 1022.618 1296.485 1052.362 1377.457 1042.402 1453.424 1072.146 1534.395 1062.186 1610.363 1091.93 1691.34 1081.971 1767.311 1111.716" style="fill: none; stroke: #49fcd4; stroke-miterlimit: 10; stroke-width: 5.669px;"/>
        <polyline points="113.724 930.649 190.462 958.002 271.422 948.914 348.162 976.267 429.123 967.18 505.862 994.532 586.825 985.445 663.565 1012.798 744.527 1003.71 821.269 1031.063 902.226 1021.975 978.964 1049.328 1059.926 1040.24 1136.669 1067.593 1217.63 1058.506 1294.374 1085.859 1375.338 1076.772 1452.081 1104.125 1533.045 1095.038 1609.79 1122.391 1690.759 1113.305 1767.507 1140.658" style="fill: none; stroke: #49fcd4; stroke-miterlimit: 10; stroke-width: 5.669px;"/>
        <polyline points="105.388 977.617 182.875 1002.56 263.863 994.339 341.352 1019.282 422.34 1011.061 499.829 1036.004 580.819 1027.783 658.309 1052.726 739.298 1044.505 816.789 1069.449 897.774 1061.227 975.26 1086.17 1056.25 1077.949 1133.742 1102.893 1214.731 1094.671 1292.224 1119.615 1373.215 1111.394 1450.708 1136.338 1531.699 1128.117 1609.193 1153.061 1690.19 1144.841 1767.688 1169.785" style="fill: none; stroke: #49fcd4; stroke-miterlimit: 10; stroke-width: 5.669px;"/>
        <polyline points="96.987 1025.043 175.195 1047.559 256.247 1040.197 334.456 1062.713 415.509 1055.35 493.718 1077.866 574.772 1070.503 652.982 1093.02 734.035 1085.657 812.247 1108.173 893.295 1100.81 971.502 1123.326 1052.556 1115.963 1130.769 1138.48 1211.822 1131.117 1290.035 1153.634 1371.09 1146.271 1449.303 1168.788 1530.358 1161.425 1608.573 1183.942 1689.634 1176.58 1767.852 1199.097" style="fill: none; stroke: #49fcd4; stroke-miterlimit: 10; stroke-width: 5.669px;"/>
        <polyline points="88.522 1072.936 167.421 1093.007 248.573 1086.495 327.474 1106.566 408.627 1100.053 487.528 1120.124 568.683 1113.612 647.584 1133.683 728.738 1127.171 807.641 1147.242 888.79 1140.729 967.689 1160.8 1048.843 1154.287 1127.748 1174.359 1208.901 1167.846 1287.806 1187.918 1368.962 1181.405 1447.867 1201.477 1529.022 1194.965 1607.928 1215.036 1689.09 1208.524 1768 1228.596" style="fill: none; stroke: #49fcd4; stroke-miterlimit: 10; stroke-width: 5.669px;"/>
        <polyline points="79.989 1121.302 159.551 1138.91 240.841 1133.239 320.404 1150.847 401.695 1145.176 481.258 1162.785 562.551 1157.113 642.114 1174.722 723.406 1169.051 802.972 1186.659 884.258 1180.988 963.819 1198.596 1045.112 1192.925 1124.678 1210.534 1205.969 1204.862 1285.537 1222.471 1366.83 1216.8 1446.397 1234.409 1527.691 1228.738 1607.259 1246.347 1688.559 1240.676 1768.131 1258.285" style="fill: none; stroke: #49fcd4; stroke-miterlimit: 10; stroke-width: 5.669px;"/>
        <polyline points="71.389 1170.147 151.583 1185.276 233.049 1180.435 313.245 1195.564 394.711 1190.724 474.907 1205.853 556.375 1201.013 636.571 1216.142 718.039 1211.302 798.237 1226.431 879.699 1221.591 959.892 1236.719 1041.361 1231.879 1121.559 1247.008 1203.027 1242.168 1283.226 1257.298 1364.696 1252.458 1444.895 1267.587 1526.364 1262.747 1606.565 1277.876 1688.04 1273.037 1768.245 1288.166" style="fill: none; stroke: #49fcd4; stroke-miterlimit: 10; stroke-width: 5.669px;"/>
        <polyline points="62.721 1219.478 143.517 1232.11 225.197 1228.091 305.995 1240.723 387.675 1236.704 468.473 1249.336 550.156 1245.317 630.954 1257.949 712.636 1253.93 793.436 1266.562 875.112 1262.542 955.908 1275.174 1037.59 1271.155 1118.391 1283.787 1200.072 1279.768 1280.874 1292.4 1362.558 1288.381 1443.36 1301.014 1525.043 1296.995 1605.846 1309.627 1687.535 1305.608 1768.342 1318.24" style="fill: none; stroke: #49fcd4; stroke-miterlimit: 10; stroke-width: 5.669px;"/>
        <polyline points="53.983 1269.304 135.351 1279.422 217.283 1276.212 298.653 1286.331 380.587 1283.121 461.956 1293.239 543.891 1290.03 625.262 1300.148 707.196 1296.939 788.568 1307.057 870.497 1303.847 951.864 1313.965 1033.799 1310.756 1115.172 1320.874 1197.106 1317.665 1278.48 1327.783 1360.416 1324.574 1441.79 1334.692 1523.726 1331.483 1605.101 1341.601 1687.043 1338.392 1768.422 1348.511" style="fill: none; stroke: #49fcd4; stroke-miterlimit: 10; stroke-width: 5.669px;"/>
        <polyline points="45.174 1319.63 127.083 1327.218 209.307 1324.806 291.218 1332.394 373.444 1329.982 455.354 1337.57 537.582 1335.158 619.492 1342.746 701.719 1340.334 783.632 1347.922 865.853 1345.51 947.761 1353.098 1029.989 1350.686 1111.902 1358.274 1194.128 1355.862 1276.043 1363.45 1358.272 1361.038 1440.186 1368.626 1522.414 1366.215 1604.33 1373.803 1686.564 1371.391 1768.484 1378.979" style="fill: none; stroke: #49fcd4; stroke-miterlimit: 10; stroke-width: 5.669px;"/>
        <polyline points="36.293 1370.465 118.711 1375.506 201.268 1373.879 283.688 1378.92 366.246 1377.293 448.665 1382.334 531.225 1380.707 613.646 1385.748 696.204 1384.121 778.627 1389.163 861.18 1387.535 943.598 1392.576 1026.157 1390.949 1108.58 1395.991 1191.139 1394.364 1273.562 1399.405 1356.123 1397.778 1438.547 1402.819 1521.108 1401.192 1603.533 1406.233 1686.099 1404.606 1768.528 1409.648" style="fill: none; stroke: #49fcd4; stroke-miterlimit: 10; stroke-width: 5.669px;"/>
        <polyline points="27.339 1421.815 110.235 1424.294 193.165 1423.438 276.062 1425.916 358.993 1425.06 441.89 1427.539 524.822 1426.683 607.72 1429.161 690.652 1428.305 773.552 1430.784 856.478 1429.928 939.373 1432.406 1022.305 1431.55 1105.205 1434.029 1188.136 1433.173 1271.038 1435.651 1353.971 1434.795 1436.873 1437.274 1519.806 1436.418 1602.709 1438.896 1685.648 1438.04 1768.554 1440.519" style="fill: none; stroke: #49fcd4; stroke-miterlimit: 10; stroke-width: 5.669px;"/>
        <line x1="18.311" y1="1473.69" x2="1768.563" y2="1471.595" style="fill: none; stroke: #49fcd4; stroke-miterlimit: 10; stroke-width: 5.669px;"/>
        <line x1="9.236" y1="1525.043" x2="1768.563" y2="1503.576" style="fill: none; stroke: #49fcd4; stroke-miterlimit: 10; stroke-width: 5.669px;"/>
        <line x1=".066" y1="1576.932" x2="1768.563" y2="1535.764" style="fill: none; stroke: #49fcd4; stroke-miterlimit: 10; stroke-width: 5.669px;"/>
      </g>
    </g>
  </g>
</svg>