<?xml version="1.0" encoding="UTF-8"?>
<svg xmlns="http://www.w3.org/2000/svg" width="550mm" height="360mm" xmlns:xlink="http://www.w3.org/1999/xlink" viewBox="0 0 1559.055 1020.472">
  <defs>
    <clipPath id="c">
      <rect width="1559.055" height="1020.472" style="fill: none; stroke-width: 0px;"/>
    </clipPath>
  </defs>
  <g id="a" data-name="Layer 4">
    <rect width="1559.055" height="1020.472" style="fill: #41e0bd; stroke-width: 0px;"/>
  </g>
  <g id="b" data-name="Layer 2 copy">
    <g style="clip-path: url(#c);">
      <polyline points="0 -27.513 74.295 27.513 148.59 -27.513 222.886 27.513 297.183 -27.513 371.478 27.513 445.776 -27.513 520.073 27.513 594.37 -27.513 668.661 27.513 742.954 -27.512 817.249 27.513 891.547 -27.512 965.846 27.513 1040.144 -27.512 1114.444 27.513 1188.743 -27.512 1263.04 27.513 1337.34 -27.512 1411.642 27.513 1485.948 -27.512 1560.254 27.513" style="fill: none; stroke: #49fcd4; stroke-miterlimit: 10; stroke-width: 5.669px;"/>
      <polyline points="0 1.677 74.295 55.035 148.59 1.677 222.886 55.035 297.182 1.677 371.478 55.036 445.776 1.678 520.073 55.036 594.37 1.678 668.661 55.036 742.954 1.678 817.249 55.036 891.547 1.678 965.846 55.036 1040.144 1.678 1114.444 55.036 1188.743 1.678 1263.04 55.036 1337.34 1.678 1411.642 55.036 1485.948 1.678 1560.254 55.036" style="fill: none; stroke: #49fcd4; stroke-miterlimit: 10; stroke-width: 5.669px;"/>
      <polyline points="0 30.868 74.295 82.558 148.59 30.868 222.886 82.558 297.182 30.868 371.478 82.558 445.776 30.868 520.073 82.558 594.37 30.868 668.661 82.558 742.954 30.868 817.249 82.558 891.547 30.868 965.846 82.558 1040.144 30.868 1114.444 82.558 1188.743 30.868 1263.04 82.559 1337.34 30.868 1411.642 82.559 1485.948 30.868 1560.254 82.559" style="fill: none; stroke: #49fcd4; stroke-miterlimit: 10; stroke-width: 5.669px;"/>
      <polyline points="0 60.058 74.295 110.081 148.59 60.058 222.886 110.081 297.182 60.058 371.478 110.081 445.776 60.058 520.073 110.081 594.37 60.058 668.661 110.081 742.954 60.058 817.249 110.081 891.547 60.058 965.846 110.081 1040.144 60.058 1114.444 110.081 1188.743 60.058 1263.04 110.081 1337.34 60.058 1411.642 110.081 1485.948 60.058 1560.254 110.081" style="fill: none; stroke: #49fcd4; stroke-miterlimit: 10; stroke-width: 5.669px;"/>
      <polyline points="0 89.248 74.295 137.603 148.59 89.248 222.886 137.604 297.182 89.248 371.478 137.604 445.776 89.248 520.073 137.604 594.37 89.248 668.661 137.604 742.954 89.248 817.249 137.604 891.547 89.248 965.846 137.604 1040.144 89.248 1114.444 137.604 1188.743 89.248 1263.04 137.604 1337.34 89.248 1411.642 137.604 1485.948 89.248 1560.254 137.604" style="fill: none; stroke: #49fcd4; stroke-miterlimit: 10; stroke-width: 5.669px;"/>
      <polyline points="0 118.438 74.295 165.126 148.59 118.438 222.886 165.126 297.182 118.438 371.478 165.126 445.776 118.438 520.073 165.126 594.37 118.438 668.661 165.126 742.954 118.438 817.249 165.126 891.547 118.438 965.846 165.126 1040.144 118.438 1114.444 165.127 1188.743 118.438 1263.04 165.127 1337.34 118.438 1411.642 165.127 1485.948 118.438 1560.254 165.127" style="fill: none; stroke: #49fcd4; stroke-miterlimit: 10; stroke-width: 5.669px;"/>
      <polyline points="0 147.628 74.295 192.649 148.59 147.628 222.886 192.649 297.182 147.628 371.478 192.649 445.776 147.628 520.073 192.649 594.37 147.628 668.661 192.649 742.954 147.628 817.249 192.649 891.547 147.628 965.846 192.649 1040.144 147.628 1114.444 192.649 1188.743 147.628 1263.04 192.649 1337.34 147.628 1411.642 192.649 1485.948 147.628 1560.253 192.649" style="fill: none; stroke: #49fcd4; stroke-miterlimit: 10; stroke-width: 5.669px;"/>
      <polyline points="0 176.818 74.295 220.172 148.59 176.818 222.886 220.172 297.182 176.818 371.478 220.172 445.776 176.818 520.073 220.172 594.37 176.818 668.661 220.172 742.954 176.818 817.248 220.172 891.547 176.818 965.846 220.172 1040.144 176.818 1114.444 220.172 1188.743 176.818 1263.04 220.172 1337.34 176.819 1411.642 220.172 1485.948 176.819 1560.253 220.172" style="fill: none; stroke: #49fcd4; stroke-miterlimit: 10; stroke-width: 5.669px;"/>
      <polyline points="0 206.008 74.295 247.694 148.59 206.008 222.886 247.694 297.182 206.008 371.478 247.694 445.776 206.008 520.073 247.694 594.37 206.008 668.661 247.694 742.954 206.008 817.248 247.694 891.547 206.009 965.846 247.695 1040.144 206.009 1114.444 247.695 1188.743 206.009 1263.04 247.695 1337.34 206.009 1411.642 247.695 1485.948 206.009 1560.253 247.695" style="fill: none; stroke: #49fcd4; stroke-miterlimit: 10; stroke-width: 5.669px;"/>
      <polyline points="0 235.198 74.295 275.217 148.59 235.198 222.886 275.217 297.182 235.198 371.478 275.217 445.776 235.198 520.073 275.217 594.37 235.199 668.661 275.217 742.954 235.199 817.248 275.217 891.547 235.199 965.846 275.217 1040.144 235.199 1114.444 275.217 1188.743 235.199 1263.04 275.217 1337.34 235.199 1411.642 275.217 1485.948 235.199 1560.253 275.217" style="fill: none; stroke: #49fcd4; stroke-miterlimit: 10; stroke-width: 5.669px;"/>
      <polyline points="0 264.388 74.295 302.74 148.59 264.389 222.886 302.74 297.182 264.389 371.478 302.74 445.776 264.389 520.073 302.74 594.37 264.389 668.661 302.74 742.954 264.389 817.248 302.74 891.547 264.389 965.846 302.74 1040.144 264.389 1114.444 302.74 1188.743 264.389 1263.04 302.74 1337.34 264.389 1411.642 302.74 1485.948 264.389 1560.253 302.74" style="fill: none; stroke: #49fcd4; stroke-miterlimit: 10; stroke-width: 5.669px;"/>
      <polyline points="0 293.579 74.295 330.262 148.59 293.579 222.886 330.262 297.182 293.579 371.478 330.262 445.776 293.579 520.073 330.262 594.37 293.579 668.661 330.262 742.954 293.579 817.248 330.262 891.547 293.579 965.846 330.263 1040.144 293.579 1114.444 330.263 1188.743 293.579 1263.04 330.263 1337.34 293.579 1411.642 330.263 1485.948 293.579 1560.253 330.263" style="fill: none; stroke: #49fcd4; stroke-miterlimit: 10; stroke-width: 5.669px;"/>
      <polyline points="0 322.769 74.295 357.785 148.59 322.769 222.886 357.785 297.182 322.769 371.478 357.785 445.776 322.769 520.073 357.785 594.37 322.769 668.661 357.785 742.954 322.769 817.248 357.785 891.547 322.769 965.846 357.785 1040.144 322.769 1114.444 357.785 1188.743 322.769 1263.04 357.785 1337.34 322.769 1411.642 357.785 1485.948 322.769 1560.253 357.785" style="fill: none; stroke: #49fcd4; stroke-miterlimit: 10; stroke-width: 5.669px;"/>
      <polyline points="0 351.959 74.295 385.308 148.59 351.959 222.886 385.308 297.182 351.959 371.478 385.308 445.776 351.959 520.073 385.308 594.37 351.959 668.661 385.308 742.954 351.959 817.248 385.308 891.547 351.959 965.846 385.308 1040.144 351.959 1114.444 385.308 1188.743 351.959 1263.04 385.308 1337.34 351.959 1411.642 385.308 1485.948 351.959 1560.253 385.308" style="fill: none; stroke: #49fcd4; stroke-miterlimit: 10; stroke-width: 5.669px;"/>
      <polyline points="0 381.149 74.295 412.83 148.59 381.149 222.886 412.83 297.182 381.149 371.478 412.83 445.776 381.149 520.073 412.83 594.37 381.149 668.661 412.83 742.954 381.149 817.248 412.831 891.547 381.149 965.846 412.831 1040.144 381.149 1114.444 412.831 1188.743 381.149 1263.04 412.831 1337.34 381.149 1411.642 412.831 1485.948 381.149 1560.253 412.831" style="fill: none; stroke: #49fcd4; stroke-miterlimit: 10; stroke-width: 5.669px;"/>
      <polyline points="0 410.339 74.295 440.353 148.59 410.339 222.886 440.353 297.182 410.339 371.478 440.353 445.776 410.339 520.073 440.353 594.37 410.339 668.661 440.353 742.954 410.339 817.248 440.353 891.547 410.339 965.846 440.353 1040.143 410.339 1114.444 440.353 1188.743 410.339 1263.04 440.353 1337.34 410.34 1411.642 440.353 1485.948 410.34 1560.253 440.353" style="fill: none; stroke: #49fcd4; stroke-miterlimit: 10; stroke-width: 5.669px;"/>
      <polyline points="0 439.529 74.295 467.876 148.59 439.529 222.886 467.876 297.182 439.529 371.478 467.876 445.776 439.529 520.073 467.876 594.37 439.529 668.661 467.876 742.954 439.529 817.248 467.876 891.547 439.529 965.846 467.876 1040.143 439.53 1114.444 467.876 1188.743 439.53 1263.04 467.876 1337.34 439.53 1411.642 467.876 1485.948 439.53 1560.253 467.876" style="fill: none; stroke: #49fcd4; stroke-miterlimit: 10; stroke-width: 5.669px;"/>
      <polyline points="0 468.719 74.295 495.398 148.59 468.719 222.886 495.398 297.182 468.719 371.478 495.398 445.776 468.719 520.073 495.398 594.37 468.719 668.661 495.399 742.954 468.72 817.248 495.399 891.547 468.72 965.846 495.399 1040.143 468.72 1114.444 495.399 1188.743 468.72 1263.04 495.399 1337.34 468.72 1411.642 495.399 1485.948 468.72 1560.253 495.399" style="fill: none; stroke: #49fcd4; stroke-miterlimit: 10; stroke-width: 5.669px;"/>
      <polyline points="0 497.909 74.295 522.921 148.59 497.909 222.886 522.921 297.182 497.91 371.478 522.921 445.776 497.91 520.073 522.921 594.37 497.91 668.661 522.921 742.954 497.91 817.248 522.921 891.547 497.91 965.846 522.921 1040.143 497.91 1114.444 522.921 1188.743 497.91 1263.04 522.921 1337.34 497.91 1411.642 522.921 1485.948 497.91 1560.253 522.922" style="fill: none; stroke: #49fcd4; stroke-miterlimit: 10; stroke-width: 5.669px;"/>
      <polyline points="0 527.1 74.295 550.444 148.59 527.1 222.886 550.444 297.182 527.1 371.478 550.444 445.776 527.1 520.073 550.444 594.37 527.1 668.661 550.444 742.954 527.1 817.248 550.444 891.547 527.1 965.846 550.444 1040.143 527.1 1114.444 550.444 1188.743 527.1 1263.04 550.444 1337.34 527.1 1411.642 550.444 1485.948 527.1 1560.253 550.444" style="fill: none; stroke: #49fcd4; stroke-miterlimit: 10; stroke-width: 5.669px;"/>
      <polyline points="0 556.29 74.295 577.966 148.59 556.29 222.886 577.966 297.182 556.29 371.478 577.966 445.776 556.29 520.073 577.967 594.37 556.29 668.661 577.967 742.954 556.29 817.248 577.967 891.547 556.29 965.846 577.967 1040.143 556.29 1114.444 577.967 1188.743 556.29 1263.04 577.967 1337.34 556.29 1411.642 577.967 1485.948 556.29 1560.253 577.967" style="fill: none; stroke: #49fcd4; stroke-miterlimit: 10; stroke-width: 5.669px;"/>
      <polyline points="0 585.48 74.295 605.489 148.59 585.48 222.886 605.489 297.182 585.48 371.478 605.489 445.776 585.48 520.073 605.489 594.37 585.48 668.661 605.489 742.954 585.48 817.248 605.489 891.547 585.48 965.846 605.489 1040.143 585.48 1114.444 605.489 1188.743 585.48 1263.04 605.489 1337.34 585.48 1411.642 605.49 1485.948 585.48 1560.253 605.49" style="fill: none; stroke: #49fcd4; stroke-miterlimit: 10; stroke-width: 5.669px;"/>
      <polyline points="0 614.67 74.295 633.012 148.59 614.67 222.886 633.012 297.182 614.67 371.478 633.012 445.776 614.67 520.073 633.012 594.37 614.67 668.661 633.012 742.954 614.67 817.248 633.012 891.547 614.67 965.846 633.012 1040.143 614.67 1114.444 633.012 1188.743 614.67 1263.04 633.012 1337.34 614.67 1411.642 633.012 1485.948 614.67 1560.253 633.012" style="fill: none; stroke: #49fcd4; stroke-miterlimit: 10; stroke-width: 5.669px;"/>
      <polyline points="0 643.86 74.295 660.534 148.59 643.86 222.886 660.534 297.182 643.86 371.478 660.535 445.776 643.86 520.073 660.535 594.37 643.86 668.661 660.535 742.954 643.86 817.248 660.535 891.547 643.86 965.846 660.535 1040.143 643.86 1114.444 660.535 1188.743 643.86 1263.04 660.535 1337.34 643.86 1411.642 660.535 1485.948 643.861 1560.253 660.535" style="fill: none; stroke: #49fcd4; stroke-miterlimit: 10; stroke-width: 5.669px;"/>
      <polyline points="0 673.05 74.295 688.057 148.59 673.05 222.886 688.057 297.182 673.05 371.478 688.057 445.776 673.05 520.073 688.057 594.37 673.05 668.661 688.057 742.954 673.05 817.248 688.057 891.547 673.05 965.846 688.057 1040.143 673.05 1114.444 688.057 1188.743 673.051 1263.04 688.057 1337.34 673.051 1411.642 688.058 1485.948 673.051 1560.253 688.058" style="fill: none; stroke: #49fcd4; stroke-miterlimit: 10; stroke-width: 5.669px;"/>
      <polyline points="0 702.24 74.295 715.58 148.59 702.24 222.886 715.58 297.182 702.24 371.478 715.58 445.776 702.24 520.073 715.58 594.37 702.24 668.661 715.58 742.954 702.24 817.248 715.58 891.547 702.241 965.846 715.58 1040.143 702.241 1114.444 715.58 1188.743 702.241 1263.04 715.58 1337.34 702.241 1411.642 715.58 1485.948 702.241 1560.253 715.58" style="fill: none; stroke: #49fcd4; stroke-miterlimit: 10; stroke-width: 5.669px;"/>
      <polyline points="0 731.43 74.295 743.102 148.59 731.43 222.886 743.103 297.182 731.43 371.478 743.103 445.776 731.431 520.073 743.103 594.37 731.431 668.661 743.103 742.954 731.431 817.248 743.103 891.547 731.431 965.846 743.103 1040.143 731.431 1114.444 743.103 1188.743 731.431 1263.04 743.103 1337.34 731.431 1411.642 743.103 1485.948 731.431 1560.253 743.103" style="fill: none; stroke: #49fcd4; stroke-miterlimit: 10; stroke-width: 5.669px;"/>
      <polyline points="0 760.62 74.295 770.625 148.59 760.621 222.886 770.625 297.182 760.621 371.478 770.625 445.776 760.621 520.073 770.625 594.37 760.621 668.661 770.625 742.954 760.621 817.248 770.625 891.547 760.621 965.846 770.625 1040.143 760.621 1114.444 770.625 1188.743 760.621 1263.04 770.626 1337.34 760.621 1411.642 770.626 1485.948 760.621 1560.253 770.626" style="fill: none; stroke: #49fcd4; stroke-miterlimit: 10; stroke-width: 5.669px;"/>
      <polyline points="0 789.811 74.295 798.148 148.59 789.811 222.886 798.148 297.182 789.811 371.478 798.148 445.776 789.811 520.073 798.148 594.37 789.811 668.661 798.148 742.954 789.811 817.248 798.148 891.547 789.811 965.846 798.148 1040.143 789.811 1114.444 798.148 1188.743 789.811 1263.04 798.148 1337.34 789.811 1411.642 798.148 1485.948 789.811 1560.253 798.148" style="fill: none; stroke: #49fcd4; stroke-miterlimit: 10; stroke-width: 5.669px;"/>
      <polyline points="0 819.001 74.295 825.671 148.59 819.001 222.886 825.671 297.182 819.001 371.478 825.671 445.776 819.001 520.073 825.671 594.37 819.001 668.661 825.671 742.954 819.001 817.248 825.671 891.547 819.001 965.846 825.671 1040.143 819.001 1114.444 825.671 1188.743 819.001 1263.04 825.671 1337.34 819.001 1411.642 825.671 1485.948 819.001 1560.253 825.671" style="fill: none; stroke: #49fcd4; stroke-miterlimit: 10; stroke-width: 5.669px;"/>
      <polyline points="0 848.191 74.295 853.193 148.59 848.191 222.886 853.193 297.182 848.191 371.478 853.193 445.776 848.191 520.073 853.193 594.37 848.191 668.661 853.193 742.954 848.191 817.248 853.193 891.547 848.191 965.846 853.193 1040.143 848.191 1114.444 853.194 1188.743 848.191 1263.04 853.194 1337.34 848.191 1411.642 853.194 1485.948 848.191 1560.253 853.194" style="fill: none; stroke: #49fcd4; stroke-miterlimit: 10; stroke-width: 5.669px;"/>
      <polyline points="0 877.381 74.295 880.716 148.59 877.381 222.886 880.716 297.182 877.381 371.478 880.716 445.776 877.381 520.073 880.716 594.37 877.381 668.661 880.716 742.954 877.381 817.248 880.716 891.547 877.381 965.846 880.716 1040.143 877.381 1114.444 880.716 1188.743 877.381 1263.04 880.716 1337.34 877.381 1411.642 880.716 1485.948 877.381 1560.253 880.716" style="fill: none; stroke: #49fcd4; stroke-miterlimit: 10; stroke-width: 5.669px;"/>
      <polyline points="0 906.571 74.295 908.239 148.59 906.571 222.886 908.239 297.182 906.571 371.478 908.239 445.776 906.571 520.073 908.239 594.37 906.571 668.661 908.239 742.954 906.571 817.248 908.239 891.547 906.571 965.846 908.239 1040.143 906.571 1114.444 908.239 1188.743 906.571 1263.04 908.239 1337.34 906.572 1411.642 908.239 1485.948 906.572 1560.253 908.239" style="fill: none; stroke: #49fcd4; stroke-miterlimit: 10; stroke-width: 5.669px;"/>
      <line y1="935.761" x2="1560.253" y2="935.762" style="fill: none; stroke: #49fcd4; stroke-miterlimit: 10; stroke-width: 5.669px;"/>
      <line x1="0" y1="963.998" x2="1560.253" y2="963.999" style="fill: none; stroke: #49fcd4; stroke-miterlimit: 10; stroke-width: 5.669px;"/>
      <line x1="0" y1="992.235" x2="1560.253" y2="992.236" style="fill: none; stroke: #49fcd4; stroke-miterlimit: 10; stroke-width: 5.669px;"/>
    </g>
  </g>
</svg>